# xmcd
#
# Track frame offsets: 
#        150
#        19716
#        38220
#        57531
#        75571
#        94000
#        114257
#        134642
#        153992
#        173437
#        188590
#        207289
#
# Disc length: 3105 seconds
#
# Revision: 0
# Processed by: cddbd v1.5.2PL0 Copyright (c) Steve Scherf et al.
# Submitted via: ExactAudioCopy v0.99pb5
#
DISCID=920c1f0c
DTITLE=Matraca Berg - South Of Heaven [Limited PRE-RELEASE Edition]
DYEAR=2009
DGENRE=Americana
TTITLE0=If I Had Wings
TTITLE1=You and Tequila
TTITLE2=Racing The Angels
TTITLE3=Silver and Glass
TTITLE4=Clouds
TTITLE5=The Dreaming Fields
TTITLE6=Oh Cumberland
TTITLE7=Camille
TTITLE8=Your Husband's Cheating On Us
TTITLE9=Demolition Angel
TTITLE10=On Your Way Home
TTITLE11=South of Heaven
EXTD=
EXTT0=
EXTT1=
EXTT2=
EXTT3=
EXTT4=
EXTT5=
EXTT6=
EXTT7=
EXTT8=
EXTT9=
EXTT10=
EXTT11=
PLAYORDER=
